<svg width="213" height="70" viewBox="0 0 213 70" fill="none" xmlns="http://www.w3.org/2000/svg">
<path d="M41.8255 47.424C41.8186 47.424 41.8119 47.424 41.8051 47.4239C41.3678 47.4181 41.0545 47.2262 40.8655 46.848C40.6415 46.496 40.5615 46.096 40.6255 45.648C40.6575 45.168 40.8495 44.752 41.2015 44.4C41.549 44.0208 42.0526 43.8289 42.7122 43.8241C42.7206 43.824 42.729 43.824 42.7375 43.824C43.6015 43.824 44.4015 43.68 45.1375 43.392C45.8415 43.104 46.4815 42.656 47.0575 42.048C47.6655 41.44 48.1775 40.656 48.5935 39.696C49.0415 38.736 49.3935 37.6 49.6495 36.288C49.7455 35.808 50.0015 35.52 50.4175 35.424C50.8335 35.296 51.2335 35.312 51.6175 35.472C52.0015 35.632 52.1615 35.952 52.0975 36.432C51.8415 38.32 51.4095 39.968 50.8015 41.376C50.2255 42.752 49.4895 43.888 48.5935 44.784C47.7295 45.648 46.7375 46.304 45.6175 46.752C44.4655 47.2 43.2015 47.424 41.8255 47.424Z" fill="#0050C2"/>
<path d="M58.3855 47.424C56.6255 47.424 55.0735 46.976 53.7295 46.08C52.3855 45.184 51.3295 43.856 50.5615 42.096C49.7935 40.336 49.4095 38.128 49.4095 35.472C49.4095 33.808 49.5695 32.272 49.8895 30.864C50.2095 29.424 50.6575 28.144 51.2335 27.024C51.8415 25.872 52.5775 24.912 53.4415 24.144C54.3375 23.344 55.3455 22.736 56.4655 22.32C57.5855 21.904 58.8335 21.696 60.2095 21.696C61.5215 21.696 62.8495 21.936 64.1935 22.416C65.5375 22.896 66.7695 23.568 67.8895 24.432V28.08C66.6095 27.056 65.3775 26.368 64.1935 26.016C63.0095 25.664 61.8415 25.488 60.6895 25.488C59.8255 25.488 59.0255 25.616 58.2895 25.872C57.5535 26.128 56.8975 26.528 56.3215 27.072C55.7775 27.584 55.2975 28.24 54.8815 29.04C54.4975 29.808 54.1935 30.72 53.9695 31.776C53.7775 32.8 53.6815 33.984 53.6815 35.328C53.6815 36.992 53.8735 38.448 54.2575 39.696C54.6415 40.944 55.2175 41.904 55.9855 42.576C56.7855 43.248 57.8095 43.584 59.0575 43.584C60.2415 43.584 61.3615 43.2 62.4175 42.432C63.4735 41.632 64.4175 40.464 65.2495 38.928C66.1135 37.36 66.8175 35.408 67.3615 33.072L68.1775 36.192C67.6015 38.976 66.7855 41.2 65.7295 42.864C64.7055 44.496 63.5535 45.664 62.2735 46.368C60.9935 47.072 59.6975 47.424 58.3855 47.424ZM72.3055 47.424C71.3135 47.424 70.4495 47.28 69.7135 46.992C68.9775 46.736 68.3535 46.32 67.8415 45.744C67.3615 45.136 66.9935 44.384 66.7375 43.488C66.4815 42.56 66.3535 41.44 66.3535 40.128V23.232C66.3535 22.784 66.5295 22.448 66.8815 22.224C67.2335 22 67.7455 21.888 68.4175 21.888C69.1215 21.888 69.6335 22 69.9535 22.224C70.3055 22.416 70.4815 22.736 70.4815 23.184V39.984C70.4815 41.392 70.6735 42.384 71.0575 42.96C71.4415 43.536 72.1615 43.824 73.2175 43.824C73.5375 43.824 73.7775 44.016 73.9375 44.4C74.0975 44.752 74.1455 45.168 74.0815 45.648C74.0495 46.096 73.8895 46.496 73.6015 46.848C73.3135 47.232 72.8815 47.424 72.3055 47.424Z" fill="#222222"/>
<path d="M72.2942 47.424C71.6862 47.424 71.2862 47.232 71.0942 46.848C70.8702 46.496 70.8222 46.096 70.9502 45.648C71.0782 45.168 71.3342 44.752 71.7182 44.4C72.1022 44.016 72.5982 43.824 73.2062 43.824C74.4542 43.824 75.6222 43.36 76.7102 42.432C77.8302 41.504 78.8062 40.224 79.6382 38.592C80.5022 36.96 81.2062 35.072 81.7502 32.928C82.2942 30.752 82.6142 28.432 82.7102 25.968C82.7422 25.584 82.9182 25.312 83.2382 25.152C83.5582 24.992 83.9102 24.928 84.2942 24.96C84.7102 24.992 85.0622 25.104 85.3502 25.296C85.6702 25.488 85.8142 25.776 85.7822 26.16C85.6222 29.392 85.2382 32.304 84.6302 34.896C84.0222 37.488 83.1582 39.728 82.0382 41.616C80.9182 43.472 79.5422 44.912 77.9102 45.936C76.3102 46.928 74.4382 47.424 72.2942 47.424Z" fill="#222222"/>
<path d="M99.4622 47.424C98.6622 47.424 97.8942 47.312 97.1582 47.088C96.4542 46.864 95.8142 46.544 95.2382 46.128C94.6622 45.68 94.2142 45.104 93.8942 44.4C93.5742 43.696 93.4142 42.864 93.4142 41.904C93.4142 41.104 93.4462 40.16 93.5102 39.072C93.6062 37.952 93.6862 36.784 93.7502 35.568C93.8462 34.32 93.9262 33.136 93.9902 32.016C94.0862 30.864 94.1342 29.872 94.1342 29.04C94.1342 27.856 93.9902 27.056 93.7022 26.64C93.4142 26.224 92.8862 26.016 92.1182 26.016C91.2542 26.016 90.2622 26.176 89.1422 26.496C88.0222 26.816 86.9342 27.136 85.8782 27.456C84.8222 27.744 83.9742 27.888 83.3342 27.888C82.7582 27.888 82.1982 27.584 81.6542 26.976C81.1422 26.336 80.7102 25.568 80.3582 24.672C80.0062 23.776 79.8302 22.896 79.8302 22.032C79.8302 21.456 79.9262 20.944 80.1182 20.496C80.3422 20.016 80.6622 19.648 81.0782 19.392C81.4942 19.136 81.9902 19.008 82.5662 19.008C83.5262 19.008 84.1822 19.312 84.5342 19.92C84.8862 20.528 85.0622 21.232 85.0622 22.032C85.0622 22.384 85.0302 22.752 84.9662 23.136C84.9022 23.488 84.8062 23.808 84.6782 24.096C84.9982 24.096 85.4462 24 86.0222 23.808C86.6302 23.584 87.3182 23.328 88.0862 23.04C88.8542 22.752 89.6702 22.512 90.5342 22.32C91.3982 22.096 92.2462 21.984 93.0782 21.984C94.2622 21.984 95.2382 22.208 96.0062 22.656C96.7742 23.104 97.3342 23.824 97.6862 24.816C98.0702 25.776 98.2622 27.072 98.2622 28.704C98.2622 29.504 98.2142 30.496 98.1182 31.68C98.0542 32.832 97.9742 34.032 97.8782 35.28C97.8142 36.528 97.7342 37.696 97.6382 38.784C97.5742 39.84 97.5422 40.672 97.5422 41.28C97.5422 42.144 97.7822 42.784 98.2622 43.2C98.7422 43.616 99.4462 43.824 100.374 43.824C100.822 43.824 101.158 44.016 101.382 44.4C101.606 44.752 101.686 45.168 101.622 45.648C101.59 46.096 101.398 46.496 101.046 46.848C100.694 47.232 100.166 47.424 99.4622 47.424Z" fill="#222222"/>
<path d="M99.5755 47.424C99.1275 47.424 98.8075 47.232 98.6155 46.848C98.3915 46.496 98.3115 46.096 98.3755 45.648C98.4075 45.168 98.5995 44.752 98.9515 44.4C99.3035 44.016 99.8155 43.824 100.487 43.824C101.415 43.824 102.311 43.616 103.175 43.2C104.039 42.784 104.855 42.144 105.623 41.28C106.391 40.416 107.111 39.328 107.783 38.016C108.455 36.672 109.095 35.12 109.703 33.36C109.863 32.88 110.135 32.656 110.519 32.688C110.903 32.688 111.239 32.848 111.527 33.168C111.847 33.456 111.959 33.792 111.863 34.176C111.223 36.416 110.487 38.368 109.655 40.032C108.855 41.696 107.943 43.072 106.919 44.16C105.927 45.248 104.823 46.064 103.607 46.608C102.391 47.152 101.047 47.424 99.5755 47.424Z" fill="#222222"/>
<path d="M111.287 69.36C110.615 69.36 110.103 69.248 109.751 69.024C109.431 68.832 109.271 68.528 109.271 68.112V23.136C109.271 22.72 109.431 22.416 109.751 22.224C110.103 22 110.615 21.888 111.287 21.888C111.991 21.888 112.519 22 112.871 22.224C113.223 22.416 113.399 22.72 113.399 23.136V27.552C114.071 26.208 114.855 25.104 115.751 24.24C116.647 23.376 117.623 22.736 118.679 22.32C119.735 21.904 120.823 21.696 121.943 21.696C123.511 21.696 124.887 21.984 126.071 22.56C127.287 23.104 128.231 24 128.903 25.248C129.607 26.464 129.959 28.096 129.959 30.144C129.959 31.008 129.911 31.856 129.815 32.688C129.719 33.488 129.591 34.272 129.431 35.04C129.271 35.808 129.111 36.544 128.951 37.248C128.823 37.92 128.711 38.576 128.615 39.216C128.519 39.824 128.471 40.4 128.471 40.944C128.471 41.872 128.727 42.592 129.239 43.104C129.751 43.584 130.631 43.824 131.879 43.824C132.327 43.824 132.647 44.016 132.839 44.4C133.063 44.752 133.143 45.168 133.079 45.648C133.047 46.096 132.855 46.496 132.503 46.848C132.151 47.232 131.639 47.424 130.967 47.424C128.919 47.424 127.319 46.864 126.167 45.744C125.015 44.624 124.439 43.104 124.439 41.184C124.439 40.608 124.471 40 124.535 39.36C124.631 38.72 124.759 38.048 124.919 37.344C125.079 36.608 125.223 35.872 125.351 35.136C125.479 34.368 125.591 33.6 125.687 32.832C125.783 32.064 125.831 31.312 125.831 30.576C125.831 28.976 125.479 27.744 124.775 26.88C124.103 25.984 122.967 25.536 121.367 25.536C120.567 25.536 119.767 25.712 118.967 26.064C118.199 26.384 117.463 26.896 116.759 27.6C116.055 28.272 115.415 29.136 114.839 30.192C114.295 31.248 113.815 32.48 113.399 33.888V68.112C113.399 68.528 113.223 68.832 112.871 69.024C112.519 69.248 111.991 69.36 111.287 69.36Z" fill="#222222"/>
<path d="M130.982 47.424C130.534 47.424 130.214 47.232 130.022 46.848C129.798 46.496 129.718 46.096 129.782 45.648C129.814 45.168 130.006 44.752 130.358 44.4C130.71 44.016 131.222 43.824 131.894 43.824C132.822 43.824 133.718 43.616 134.582 43.2C135.446 42.784 136.262 42.144 137.03 41.28C137.798 40.416 138.518 39.328 139.19 38.016C139.862 36.672 140.502 35.12 141.11 33.36C141.27 32.88 141.542 32.656 141.926 32.688C142.31 32.688 142.646 32.848 142.934 33.168C143.254 33.456 143.366 33.792 143.27 34.176C142.63 36.416 141.894 38.368 141.062 40.032C140.262 41.696 139.35 43.072 138.326 44.16C137.334 45.248 136.23 46.064 135.014 46.608C133.798 47.152 132.454 47.424 130.982 47.424Z" fill="#222222"/>
<path d="M142.694 69.36C142.022 69.36 141.51 69.248 141.158 69.024C140.838 68.832 140.678 68.528 140.678 68.112V23.136C140.678 22.72 140.838 22.416 141.158 22.224C141.51 22 142.022 21.888 142.694 21.888C143.398 21.888 143.926 22 144.278 22.224C144.63 22.416 144.806 22.72 144.806 23.136V27.552C145.478 26.208 146.262 25.104 147.158 24.24C148.054 23.376 149.03 22.736 150.086 22.32C151.142 21.904 152.23 21.696 153.35 21.696C154.918 21.696 156.294 21.984 157.478 22.56C158.694 23.104 159.638 24 160.31 25.248C161.014 26.464 161.366 28.096 161.366 30.144C161.366 31.008 161.318 31.856 161.222 32.688C161.126 33.488 160.998 34.272 160.838 35.04C160.678 35.808 160.518 36.544 160.358 37.248C160.23 37.92 160.118 38.576 160.022 39.216C159.926 39.824 159.878 40.4 159.878 40.944C159.878 41.872 160.134 42.592 160.646 43.104C161.158 43.584 162.038 43.824 163.286 43.824C163.734 43.824 164.054 44.016 164.246 44.4C164.47 44.752 164.55 45.168 164.486 45.648C164.454 46.096 164.262 46.496 163.91 46.848C163.558 47.232 163.046 47.424 162.374 47.424C160.326 47.424 158.726 46.864 157.574 45.744C156.422 44.624 155.846 43.104 155.846 41.184C155.846 40.608 155.878 40 155.942 39.36C156.038 38.72 156.166 38.048 156.326 37.344C156.486 36.608 156.63 35.872 156.758 35.136C156.886 34.368 156.998 33.6 157.094 32.832C157.19 32.064 157.238 31.312 157.238 30.576C157.238 28.976 156.886 27.744 156.182 26.88C155.51 25.984 154.374 25.536 152.774 25.536C151.974 25.536 151.174 25.712 150.374 26.064C149.606 26.384 148.87 26.896 148.166 27.6C147.462 28.272 146.822 29.136 146.246 30.192C145.702 31.248 145.222 32.48 144.806 33.888V68.112C144.806 68.528 144.63 68.832 144.278 69.024C143.926 69.248 143.398 69.36 142.694 69.36Z" fill="#222222"/>
<path d="M162.388 47.424C161.94 47.424 161.62 47.232 161.428 46.848C161.204 46.496 161.124 46.096 161.188 45.648C161.22 45.168 161.412 44.752 161.764 44.4C162.116 44.016 162.628 43.824 163.3 43.824C164.228 43.824 165.124 43.616 165.988 43.2C166.852 42.784 167.668 42.144 168.436 41.28C169.204 40.416 169.924 39.328 170.596 38.016C171.268 36.672 171.908 35.12 172.516 33.36C172.676 32.88 172.948 32.656 173.332 32.688C173.716 32.688 174.052 32.848 174.34 33.168C174.66 33.456 174.772 33.792 174.676 34.176C174.036 36.416 173.3 38.368 172.468 40.032C171.668 41.696 170.756 43.072 169.732 44.16C168.74 45.248 167.636 46.064 166.42 46.608C165.204 47.152 163.86 47.424 162.388 47.424Z" fill="#222222"/>
<path d="M178.036 47.424C177.076 47.424 176.212 47.28 175.444 46.992C174.708 46.736 174.084 46.32 173.572 45.744C173.092 45.136 172.724 44.384 172.468 43.488C172.212 42.56 172.084 41.44 172.084 40.128V23.136C172.084 22.72 172.244 22.416 172.564 22.224C172.916 22 173.428 21.888 174.1 21.888C174.804 21.888 175.332 22 175.684 22.224C176.036 22.416 176.212 22.72 176.212 23.136V39.984C176.212 41.392 176.404 42.384 176.788 42.96C177.172 43.536 177.892 43.824 178.948 43.824C179.396 43.824 179.732 44.016 179.956 44.4C180.18 44.752 180.26 45.168 180.196 45.648C180.164 46.096 179.972 46.496 179.62 46.848C179.268 47.232 178.74 47.424 178.036 47.424ZM174.1 14.496C173.204 14.496 172.532 14.256 172.084 13.776C171.636 13.264 171.412 12.512 171.412 11.52C171.412 10.496 171.636 9.728 172.084 9.216C172.532 8.704 173.204 8.448 174.1 8.448C174.996 8.448 175.652 8.704 176.068 9.216C176.516 9.728 176.74 10.496 176.74 11.52C176.804 12.512 176.596 13.264 176.116 13.776C175.668 14.256 174.996 14.496 174.1 14.496Z" fill="#222222"/>
<path d="M177.997 47.424C177.549 47.424 177.229 47.232 177.037 46.848C176.813 46.496 176.733 46.096 176.797 45.648C176.829 45.168 177.021 44.752 177.373 44.4C177.725 44.016 178.237 43.824 178.909 43.824C179.773 43.824 180.573 43.68 181.309 43.392C182.013 43.104 182.653 42.656 183.229 42.048C183.837 41.44 184.349 40.656 184.765 39.696C185.213 38.736 185.565 37.6 185.821 36.288C185.917 35.808 186.173 35.52 186.589 35.424C187.005 35.296 187.405 35.312 187.789 35.472C188.173 35.632 188.333 35.952 188.269 36.432C188.013 38.32 187.581 39.968 186.973 41.376C186.397 42.752 185.661 43.888 184.765 44.784C183.901 45.648 182.909 46.304 181.789 46.752C180.637 47.2 179.373 47.424 177.997 47.424Z" fill="#222222"/>
<path d="M194.605 47.424C192.845 47.424 191.277 46.976 189.901 46.08C188.557 45.184 187.501 43.856 186.733 42.096C185.997 40.336 185.629 38.128 185.629 35.472C185.629 33.808 185.773 32.272 186.061 30.864C186.381 29.424 186.845 28.144 187.453 27.024C188.061 25.872 188.797 24.912 189.661 24.144C190.525 23.344 191.517 22.736 192.637 22.32C193.757 21.904 195.005 21.696 196.381 21.696C197.405 21.696 198.445 21.856 199.501 22.176C200.557 22.464 201.565 22.88 202.525 23.424V23.232C202.525 22.784 202.701 22.448 203.053 22.224C203.405 22 203.933 21.888 204.637 21.888C205.341 21.888 205.853 22 206.173 22.224C206.525 22.416 206.701 22.736 206.701 23.184V41.856C206.701 42.304 206.749 42.672 206.845 42.96C206.973 43.248 207.133 43.456 207.325 43.584C207.549 43.712 207.789 43.776 208.045 43.776C208.365 43.776 208.621 43.728 208.813 43.632C209.037 43.536 209.245 43.392 209.437 43.2C209.661 42.976 209.917 42.704 210.205 42.384C210.397 42.16 210.637 42.08 210.925 42.144C211.213 42.176 211.517 42.304 211.837 42.528C212.157 42.816 212.349 43.136 212.413 43.488C212.509 43.808 212.477 44.112 212.317 44.4C211.965 45.008 211.517 45.536 210.973 45.984C210.461 46.432 209.885 46.784 209.245 47.04C208.605 47.296 207.933 47.424 207.229 47.424C206.493 47.424 205.853 47.328 205.309 47.136C204.765 46.976 204.285 46.72 203.869 46.368C203.485 45.984 203.197 45.536 203.005 45.024C202.813 44.48 202.669 43.872 202.573 43.2C202.573 43.04 202.557 42.848 202.525 42.624C202.525 42.4 202.525 42.16 202.525 41.904C201.821 43.28 201.037 44.368 200.173 45.168C199.309 45.968 198.397 46.544 197.437 46.896C196.509 47.248 195.565 47.424 194.605 47.424ZM189.853 35.328C189.853 36.992 190.045 38.448 190.429 39.696C190.813 40.944 191.405 41.904 192.205 42.576C193.005 43.248 194.013 43.584 195.229 43.584C196.221 43.584 197.165 43.312 198.061 42.768C198.957 42.224 199.789 41.408 200.557 40.32C201.325 39.2 201.981 37.824 202.525 36.192V26.976C201.533 26.4 200.573 26.016 199.645 25.824C198.749 25.6 197.821 25.488 196.861 25.488C195.997 25.488 195.197 25.616 194.461 25.872C193.757 26.128 193.117 26.528 192.541 27.072C191.965 27.584 191.469 28.24 191.053 29.04C190.669 29.808 190.365 30.72 190.141 31.776C189.949 32.8 189.853 33.984 189.853 35.328Z" fill="#222222"/>
<path d="M25.5 9.5C22.5 7.576 21 6.5 16.3835 9.5L16.3406 13.2005C16.3406 13.2005 21.4647 9.20051 25.4647 13.2005C29.4647 17.2005 32.9028 13.2005 32.9028 13.2005L32.9455 11.424C32.9455 10.3322 32.9971 9.32415 33.1003 8.4C30.7005 12.624 28.5 11.424 25.5 9.5Z" fill="#0050C2"/>
<path fill-rule="evenodd" clip-rule="evenodd" d="M5.372 54.556C6.396 55.228 7.628 55.564 9.068 55.564C10.732 55.564 12.092 55.164 13.148 54.364C14.204 53.532 14.988 52.3 15.5 50.668C16.012 49.004 16.3406 40.508 16.3406 38.108L32.9455 25.916V36.336C32.9455 38.256 33.1215 39.92 33.4735 41.328C33.8575 42.736 34.4175 43.888 35.1535 44.784C35.8895 45.68 36.8015 46.336 37.8895 46.752C39.0095 47.2 40.3055 47.424 41.7775 47.424C41.7867 47.424 41.7959 47.424 41.8051 47.4239C41.3678 47.4181 41.0545 47.2262 40.8655 46.848C40.6415 46.496 40.5615 46.096 40.6255 45.648C40.6575 45.168 40.8495 44.752 41.2015 44.4C41.549 44.0208 42.0526 43.8289 42.7122 43.8241C42.7047 43.824 42.6971 43.824 42.6895 43.824C41.7615 43.824 40.9455 43.68 40.2415 43.392C39.5375 43.104 38.9455 42.672 38.4655 42.096C38.0175 41.488 37.6815 40.72 37.4575 39.792C37.2335 38.832 37.1215 37.664 37.1215 36.288V20.064C38.9135 19.136 40.4335 18.192 41.6815 17.232C42.9615 16.272 43.9855 15.296 44.7535 14.304C45.5215 13.28 46.0815 12.24 46.4335 11.184C46.8175 10.096 47.0095 8.976 47.0095 7.824C47.0095 6.448 46.7375 5.216 46.1935 4.128C45.6495 3.008 44.8815 2.112 43.8895 1.44C42.8975 0.768001 41.6815 0.432 40.2415 0.432C38.5775 0.432 37.2015 0.848001 36.1135 1.68C35.0575 2.512 34.2575 3.744 33.7135 5.376C33.4313 6.25768 33.2269 7.26568 33.1003 8.4C32.9971 9.32415 32.9455 10.3322 32.9455 11.424L32.9028 13.2005L32.9455 21.5L16.3406 33.692V13.2005L16.3835 9.5L16.3855 8.4C16.3855 5.584 15.8255 3.488 14.7055 2.112C13.5855 0.704 11.8895 0 9.61745 0C8.27345 0 7.04145 0.272 5.92145 0.816001C4.83345 1.36 3.82545 2.144 2.89745 3.168C2.00145 4.192 1.15345 5.424 0.353455 6.864C0.0654545 7.344 -0.0465455 7.776 0.0174546 8.16C0.0814544 8.544 0.385454 8.896 0.929455 9.216C1.50545 9.504 1.96945 9.6 2.32145 9.504C2.70545 9.376 3.02545 9.088 3.28145 8.64C3.95345 7.552 4.60945 6.672 5.24945 6C5.88945 5.296 6.54545 4.784 7.21745 4.464C7.92145 4.112 8.62545 3.936 9.32945 3.936C10.2895 3.936 10.9935 4.288 11.4415 4.992C11.9215 5.696 12.1615 6.832 12.1615 8.4L12.044 35.5C10.348 36.332 8.876 37.228 7.628 38.188C6.412 39.116 5.404 40.108 4.604 41.164C3.804 42.22 3.212 43.324 2.828 44.476C2.444 45.596 2.252 46.764 2.252 47.98C2.252 49.324 2.508 50.588 3.02 51.772C3.564 52.924 4.348 53.852 5.372 54.556ZM11.324 50.332C10.844 51.324 10.092 51.82 9.068 51.82C8.332 51.82 7.708 51.468 7.196 50.764C6.684 50.028 6.428 49.084 6.428 47.932C6.428 47.068 6.54 46.252 6.764 45.484C7.02 44.684 7.372 43.948 7.82 43.276C8.268 42.572 8.844 41.932 9.548 41.356C10.284 40.78 11.116 40.252 12.044 39.772V45.052C12.044 47.58 11.804 49.34 11.324 50.332ZM39.7135 14.112C39.0095 14.688 38.1455 15.248 37.1215 15.792V10.944C37.1215 8.416 37.3775 6.656 37.8895 5.664C38.4335 4.672 39.2175 4.176 40.2415 4.176C40.9775 4.176 41.5855 4.544 42.0655 5.28C42.5455 5.984 42.7855 6.832 42.7855 7.824C42.7855 8.72 42.6735 9.536 42.4495 10.272C42.2575 11.008 41.9375 11.696 41.4895 12.336C41.0415 12.944 40.4495 13.536 39.7135 14.112Z" fill="#0050C2"/>
</svg>
